# xmcd CD database file
#
# Track frame offsets:
#	150
#	20560
#	39520
#	53802
#	70583
#	91398
#	111619
#	134507
#	163682
#	187093
#	205083
#
# Disc length: 3037 seconds
#
# Revision: 2
# Processed by: cddbd v1.5.1PL0 Copyright (c) Steve Scherf et al.
# Submitted via: CDex 1.60beta1-cs1
#
DISCID=9e0bdb0b
DTITLE=John Lee Hooker - I Feel Good
DYEAR=1900
DGENRE=Blues
TTITLE0=Baby Baby
TTITLE1=I Feel Good
TTITLE2=Going Home
TTITLE3=We Are Cooking
TTITLE4=Looking Back over My Day
TTITLE5=Dazie Mae
TTITLE6=Stand Back
TTITLE7=Call it the Night
TTITLE8=Roll and Rumble
TTITLE9=Bottle of Wine
TTITLE10=Baby Don't Do Me Wrong
EXTD=
EXTT0=
EXTT1=
EXTT2=
EXTT3=
EXTT4=
EXTT5=
EXTT6=
EXTT7=
EXTT8=
EXTT9=
EXTT10=
PLAYORDER=
